<?xml version="1.0" encoding="UTF-8" standalone="no"?>
<svg
   xmlns="http://www.w3.org/2000/svg"
   viewBox="0 0 427.97531 429.3168"
   version="1.1"
   id="svg3336">
  <path
     id="path3346"
     d="M 183.98071,427.85974 C 103.70375,416.22664 35.794562,359.25705 10.589732,282.40059 2.8542919,258.81312 -0.02980802,240.17775 2.319828e-4,213.97753 0.03983198,179.44286 6.7982219,149.87341 21.490862,119.9513 49.020302,63.886555 99.555502,21.996075 158.39917,6.4629703 180.18357,0.71249 186.31099,0 213.98071,0 c 27.7709,0 33.76889,0.703939 55.98436,6.5704713 68.50027,18.0891507 125.11412,71.9463247 147.54911,140.3645587 7.62486,23.25292 10.46934,41.87606 10.46111,68.49004 -0.0183,59.058 -22.51637,112.1788 -65.12584,153.77006 -16.85873,16.45588 -31.29687,26.76503 -52.60397,37.56039 -22.26345,11.27991 -43.93253,18.03164 -68.06599,21.20824 -14.04196,1.84829 -45.10955,1.79277 -58.19878,-0.10402 z m 58.21562,-7.95839 c 48.61813,-6.67787 92.83477,-30.52373 126.3035,-68.11498 21.47212,-24.11695 37.32311,-54.00677 45.39182,-85.59423 8.14718,-31.89464 8.30621,-69.38491 0.43143,-101.70461 C 401.97144,113.79383 369.23156,68.148957 324.44734,39.185699 301.22584,24.167681 270.96692,13.100801 241.7843,8.9525633 228.07212,7.0034113 200.07142,7.0298053 185.9082,9.0052333 112.34404,19.26566 49.463422,68.894947 21.939952,138.41916 6.6986819,176.91854 3.6379919,223.37158 13.638342,264.41507 c 17.92765,73.57878 76.55155,132.67646 149.842368,151.05338 6.6,1.65488 16.05,3.63444 21,4.39901 12.59509,1.94542 43.6659,1.96367 57.71562,0.0339 z m 30.85164,-23.32438 c -0.73564,-1.37455 -1.06726,-32.62071 -1.06726,-100.55993 l 0,-98.56574 -27,0 -27,0 0,47.06574 c 0,30.53126 -0.36367,47.74526 -1.03518,49 -1.07902,2.01616 -5.39478,2.66562 -6.44299,0.96958 -0.32792,-0.53058 -0.57145,-22.35558 -0.54119,-48.5 l 0.055,-47.53532 -29.82047,0 -29.82046,0 -27.3755,60.25 c -15.05652,33.1375 -27.819318,60.83525 -28.361768,61.55056 -1.62292,2.14009 -6.10743,1.05196 -6.47986,-1.57229 -0.19403,-1.36738 10.25579,-25.49793 26.250018,-60.61603 14.61482,-32.08936 26.5724,-58.62442 26.5724,-58.96679 0,-0.34238 -17.8875,-0.74016 -39.75,-0.88398 l -39.749998,-0.26147 -0.33466,-2.36534 c -0.18407,-1.30093 0.17551,-2.87593 0.79906,-3.5 0.792,-0.79264 13.5427,-1.28537 42.301378,-1.63466 l 41.16765,-0.5 33.0397,-72.5 c 33.03809,-72.496484 33.03984,-72.500007 36.03328,-72.500007 l 2.99359,0 0.25658,72.250007 0.25657,72.25 26.99343,0 26.99342,0 0,-29.30887 c 0,-31.62881 0.24649,-33.21497 5.05603,-32.5361 l 2.44397,0.34497 0.26444,30.7395 0.26443,30.7395 43.73557,0.2605 43.73556,0.2605 0.34497,2.44397 c 0.70297,4.98029 0.0209,5.05603 -45.53129,5.05603 l -42.30407,0 -0.2548,100.25 -0.25481,100.25 -2.68274,0.30993 c -1.86608,0.21559 -3.00763,-0.29713 -3.75,-1.68426 z M 209.91007,129.2013 c -0.0691,-59.875657 -0.11112,-61.160254 -1.87487,-57.250007 -0.99232,2.200003 -12.48312,27.400007 -25.53509,56.000007 -13.05197,28.6 -24.78352,54.3625 -26.0701,57.25 l -2.33924,5.25 27.94497,0 27.94497,0 -0.0706,-61.25 z"
     />
</svg>
